<svg xmlns="http://www.w3.org/2000/svg" xmlns:xlink="http://www.w3.org/1999/xlink" width="364.464" height="273.348" viewBox="0 0 364.464 273.348">
  <defs>
    <linearGradient id="linear-gradient" x1="0.125" y1="0.025" x2="0.947" y2="1.413" gradientUnits="objectBoundingBox">
      <stop offset="0" stop-color="#fff" stop-opacity="0.2"/>
      <stop offset="1" stop-color="#fff" stop-opacity="0"/>
    </linearGradient>
    <linearGradient id="linear-gradient-2" x1="0.036" y1="0.286" x2="1.014" y2="0.894" xlink:href="#linear-gradient"/>
  </defs>
  <g id="Car" transform="translate(0 -3)">
    <path id="Path_24" data-name="Path 24" d="M364.358,177.639c-.5-21.67-3.143-46.621-8.352-56.644-2.961-5.771-10.995-13.105-22.87-23.629-2.232-1.974-4.89-4.343-7.4-6.621l17.783-4.45a7.593,7.593,0,1,0-3.675-14.73l-24.616,6.15-3.66-7.061c-16.948-32.771-27.76-52.741-32.847-57.843C276.294,10.38,268.9,3,182.232,3S88.17,10.38,85.74,12.81c-5.087,5.1-15.9,25.057-32.847,57.843l-3.645,7.061-24.632-6.15A7.593,7.593,0,1,0,20.941,86.3l17.768,4.449c-2.49,2.278-5.148,4.647-7.38,6.621C19.453,107.89,11.435,115.225,8.443,121,3.25,131.018.607,155.969.106,177.639H0v75.93a22.807,22.807,0,0,0,22.779,22.779H37.965a22.779,22.779,0,0,0,22.7-22.035c37.175,4.115,86.712,6.849,121.564,6.849s84.389-2.733,121.564-6.849a22.779,22.779,0,0,0,22.7,22.035h15.186a22.807,22.807,0,0,0,22.779-22.779v-75.93Z" transform="translate(0 0)" fill="#303c42"/>
    <path id="Path_25" data-name="Path 25" d="M273.361,81.513c-1.913-4.89-4.981-11.465-8.823-15.323-9.355-9.339-82-9.81-96.492-9.81s-87.137.471-96.492,9.81c-3.842,3.857-6.91,10.433-8.823,15.338C33.377,78.689,11.8,75.363,6.087,73.3,3.87,69.03,1,52.538,1,26.008c0-3.933.106-7.866.258-11.784A217.4,217.4,0,0,0,71.478,26.98a33.625,33.625,0,0,0,10.767,6.272c19.2,6.059,69.613,7.942,85.8,7.942s66.606-1.883,85.8-7.942a33.622,33.622,0,0,0,10.782-6.287,216.8,216.8,0,0,0,70.2-12.741c.152,3.918.258,7.851.258,11.784,0,26.53-2.855,43.022-5.1,47.289-5.695,2.065-27.274,5.391-56.629,8.216Z" transform="translate(14.186 159.224)" fill="#e6e6e6"/>
    <path id="Path_26" data-name="Path 26" d="M46.244,23.506A94.514,94.514,0,0,0,57.026,48.867,201.5,201.5,0,0,1,1.081,36C1.962,25.951,3.283,17.3,4.817,11.57,14.156,13.438,32.152,17.553,46.244,23.506Z" transform="translate(15.335 121.574)" fill="#f2f2f2"/>
    <path id="Path_27" data-name="Path 27" d="M30.017,23.492c14.062-5.938,32.088-10.053,41.427-11.921A156,156,0,0,1,75.18,35.99,201.984,201.984,0,0,1,19.235,48.837,94.114,94.114,0,0,0,30.017,23.477Z" transform="translate(272.868 121.588)" fill="#f2f2f2"/>
    <path id="Path_28" data-name="Path 28" d="M46.11,29.687q-1.06-3.045-1.822-6.181C30.195,17.553,12.184,13.438,2.845,11.57q-.979,3.866-1.625,7.806C13.369,21.441,31.167,24.949,46.11,29.687Z" transform="translate(17.307 121.574)" opacity="0.1"/>
    <path id="Path_29" data-name="Path 29" d="M64.242,19.011q-.627-3.751-1.564-7.441c-9.339,1.883-27.365,6-41.427,11.936q-.6,2.48-1.4,4.905A407.694,407.694,0,0,1,64.242,19Z" transform="translate(281.635 121.574)" opacity="0.1"/>
    <path id="Path_30" data-name="Path 30" d="M189.054,14c-3.189,3.766-6.651,6.8-10.3,7.942-16.34,5.163-64.085,7.244-81.245,7.244s-64.9-2.08-81.245-7.244C12.623,20.8,9.161,17.766,5.972,14Z" transform="translate(84.719 156.046)" fill="#37474f"/>
    <path id="Path_31" data-name="Path 31" d="M96.891,27.1H13.14l3.781-15.095c48.732.41,74.776,2.278,84.343,4.161A80.153,80.153,0,0,1,96.891,27.1Z" transform="translate(186.404 127.759)" fill="#37474f"/>
    <path id="Path_32" data-name="Path 32" d="M18.777,27.186H15.436L11.64,12.03,17.107,12l5.467.03Z" transform="translate(165.125 127.674)" fill="#f2f2f2"/>
    <path id="Path_33" data-name="Path 33" d="M89.4,12.006,93.181,27.1H9.431A78.736,78.736,0,0,1,5.057,16.167C14.624,14.284,40.668,12.416,89.4,12.006Z" transform="translate(71.739 127.759)" fill="#37474f"/>
    <path id="Path_34" data-name="Path 34" d="M96.787,23.335a69.675,69.675,0,0,0,2.718-7.168c-9.567-1.883-35.611-3.751-84.343-4.161l-1.9,7.593C59.293,19.994,85.352,21.6,96.787,23.335Z" transform="translate(188.163 127.759)" opacity="0.1"/>
    <path id="Path_35" data-name="Path 35" d="M91.3,19.6l-1.9-7.593c-48.732.41-74.791,2.278-84.343,4.161a73.4,73.4,0,0,0,2.718,7.168C19.21,21.6,45.285,19.994,91.3,19.6Z" transform="translate(71.739 127.759)" opacity="0.1"/>
    <path id="Path_36" data-name="Path 36" d="M36.931,9.816C42.7,6.43,79,4,123.218,4s80.5,2.445,85.74,5.376c4.434,4.434,23.083,40.486,30.1,54.062l3.28,6.3c-19.5-2.232-56.173-5-119.119-5-63.037,0-99.65,2.7-119.058,4.875l3.219-6.181C14.4,49.862,33.044,13.81,36.931,9.816Z" transform="translate(59.014 14.186)" fill="#7c858d"/>
    <path id="Path_37" data-name="Path 37" d="M36.931,9.816C42.7,6.43,79,4,123.218,4s80.5,2.445,85.74,5.376c4.434,4.434,23.083,40.486,30.1,54.062l3.28,6.3c-19.5-2.232-56.173-5-119.119-5-63.037,0-99.65,2.7-119.058,4.875l3.219-6.181C14.4,49.862,33.044,13.81,36.931,9.816Z" transform="translate(59.014 14.186)" fill="url(#linear-gradient)"/>
    <path id="Path_38" data-name="Path 38" d="M13.877,23.624c3.341-2.961,6.1-5.467,8.6-7.775C30.491,14.421,66.512,9,154.7,9c88.231,0,124.4,5.558,132.422,7.031,2.43,2.278,5.148,4.708,8.4,7.593,3.6,3.189,8.109,7.183,11.936,10.843C297,36.76,282.229,40.617,269.7,45.856c-10.721-4.009-39.21-6.484-115-6.484s-104.282,2.475-115,6.484c-12.528-5.239-27.3-9.1-37.752-11.389C5.768,30.822,10.278,26.813,13.877,23.624Z" transform="translate(27.535 85.116)" fill="#e6e6e6"/>
    <path id="Path_39" data-name="Path 39" d="M13.877,32.326c3.341-2.976,6.1-5.467,8.6-7.775C30.491,23.108,66.512,17.7,154.7,17.7c88.231,0,124.4,5.558,132.422,7.031,2.43,2.278,5.148,4.708,8.4,7.593l4.4,3.918c2.642-.653,5.224-1.276,7.532-1.777-3.827-3.645-8.337-7.654-11.936-10.843q-4.239-3.752-8.4-7.593C279.1,14.558,242.928,9,154.7,9,66.527,9,30.491,14.421,22.472,15.849c-2.491,2.308-5.254,4.814-8.6,7.775-3.6,3.189-8.109,7.183-11.936,10.843,2.308.5,4.89,1.124,7.532,1.777l4.4-3.918Z" transform="translate(27.535 85.116)" fill="#fff" opacity="0.2"/>
    <path id="Path_40" data-name="Path 40" d="M31.372,26.2a7.593,7.593,0,0,1-7.593,7.593H8.593A7.593,7.593,0,0,1,1,26.2V19.028c6.211,2.156,16.856,4.207,30.372,6.044Z" transform="translate(14.186 227.373)" fill="#37474f"/>
    <path id="Path_41" data-name="Path 41" d="M6.11,29.359a27.092,27.092,0,0,1,2.809-5.315C15.07,20.961,57.165,18,95.556,18s80.486,2.946,85.74,5.376a23.419,23.419,0,0,1,3.63,5.983q-44.59,3.7-89.369,3.827C64.379,33.186,32.989,31.546,6.11,29.359Z" transform="translate(86.676 212.79)" fill="#37474f"/>
    <path id="Path_42" data-name="Path 42" d="M95.57,25.593c33.075,0,68.838,2.187,81.488,4.343,2.612-.2,5.345-.364,7.882-.577a23.859,23.859,0,0,0-3.629-5.983C176.055,20.946,133.96,18,95.57,18S15.084,20.946,8.934,24.059a25.826,25.826,0,0,0-2.825,5.3c3.052.243,6.348.456,9.522.683,14.472-2.43,48.291-4.45,79.939-4.45Z" transform="translate(86.662 212.79)" opacity="0.1"/>
    <path id="Path_43" data-name="Path 43" d="M43.779,33.789H28.593A7.593,7.593,0,0,1,21,26.2V25.072c13.516-1.822,24.161-3.888,30.372-6.044V26.2A7.593,7.593,0,0,1,43.779,33.789Z" transform="translate(297.906 227.373)" fill="#37474f"/>
    <path id="Path_44" data-name="Path 44" d="M1,19.028V26.2c5.771,2.02,15.52,3.918,27.714,5.664A7.487,7.487,0,0,0,31.372,26.2V25.072C17.856,23.25,7.211,21.184,1,19.028Z" transform="translate(14.186 227.373)" opacity="0.1"/>
    <path id="Path_45" data-name="Path 45" d="M21,25.072V26.2a7.519,7.519,0,0,0,2.658,5.664C35.852,30.114,45.6,28.216,51.372,26.2V19.028C45.161,21.184,34.516,23.235,21,25.072Z" transform="translate(297.906 227.373)" opacity="0.1"/>
    <ellipse id="Ellipse_3" data-name="Ellipse 3" cx="15.5" cy="16.5" rx="15.5" ry="16.5" transform="translate(304 198.411)" fill="#303c42"/>
    <ellipse id="Ellipse_4" data-name="Ellipse 4" cx="14.5" cy="16.5" rx="14.5" ry="16.5" transform="translate(31 198.411)" fill="#303c42"/>
    <path id="Path_46" data-name="Path 46" d="M364.358,177.639c-.5-21.67-3.143-46.621-8.352-56.644-2.961-5.771-10.995-13.105-22.87-23.629-2.232-1.974-4.89-4.343-7.4-6.621l17.783-4.45a7.593,7.593,0,1,0-3.675-14.73l-24.616,6.15-3.66-7.061c-16.948-32.771-27.76-52.741-32.847-57.843C276.294,10.38,268.9,3,182.232,3S88.17,10.38,85.74,12.81c-5.087,5.1-15.9,25.057-32.847,57.843l-3.645,7.061-24.632-6.15A7.593,7.593,0,1,0,20.941,86.3l17.768,4.449c-2.49,2.278-5.148,4.647-7.38,6.621C19.453,107.89,11.435,115.225,8.443,121,3.25,131.018.607,155.969.106,177.639H0v75.93a22.807,22.807,0,0,0,22.779,22.779H37.965a22.779,22.779,0,0,0,22.7-22.035c37.175,4.115,86.712,6.849,121.564,6.849s84.389-2.733,121.564-6.849a22.779,22.779,0,0,0,22.7,22.035h15.186a22.807,22.807,0,0,0,22.779-22.779v-75.93Z" transform="translate(0 0)" fill="url(#linear-gradient-2)"/>
  </g>
</svg>
