<?xml version="1.0" encoding="utf-8"?>
<!-- Generator: Adobe Illustrator 23.0.6, SVG Export Plug-In . SVG Version: 6.00 Build 0)  -->
<svg version="1.1" id="Layer_1" xmlns="http://www.w3.org/2000/svg" xmlns:xlink="http://www.w3.org/1999/xlink" x="0px" y="0px"
	 viewBox="0 0 566.9 566.9" style="enable-background:new 0 0 566.9 566.9;" xml:space="preserve">
<style type="text/css">
	.st0{fill:#2F75E9;}
	.st1{fill:#303C42;}
	.st2{fill:#E6E6E6;}
	.st3{fill:#F2F2F2;}
	.st4{opacity:0.1;enable-background:new    ;}
	.st5{fill:#37474F;}
	.st6{fill:#7C858D;}
	.st7{fill:url(#Path_37_1_);}
	.st8{opacity:0.2;fill:#FFFFFF;enable-background:new    ;}
	.st9{fill:url(#Path_46_1_);}
</style>
<circle class="st0" cx="283.5" cy="283.5" r="283.5"/>
<g id="Car" transform="translate(0 -3)">
	<path id="Path_24" class="st1" d="M465.6,324.4c-0.5-21.7-3.1-46.6-8.4-56.6c-3-5.8-11-13.1-22.9-23.6c-2.2-2-4.9-4.3-7.4-6.6
		l17.8-4.4c4.1-0.9,6.7-5,5.8-9.1c-0.9-4.1-5-6.7-9.1-5.8c-0.1,0-0.2,0.1-0.4,0.1l-24.6,6.1l-3.7-7.1
		c-16.9-32.8-27.8-52.7-32.8-57.8c-2.4-2.4-9.8-9.8-96.5-9.8s-94.1,7.4-96.5,9.8c-5.1,5.1-15.9,25.1-32.8,57.8l-3.6,7.1l-24.6-6.1
		c-4.1-1-8.2,1.5-9.2,5.5c-1,4.1,1.5,8.2,5.5,9.2l0,0l17.8,4.4c-2.5,2.3-5.1,4.6-7.4,6.6c-11.9,10.5-19.9,17.9-22.9,23.6
		c-5.2,10-7.8,35-8.3,56.6h-0.1v75.9c0,12.6,10.2,22.8,22.8,22.8h15.2c12.3,0,22.3-9.8,22.7-22c37.2,4.1,86.7,6.8,121.6,6.8
		s84.4-2.7,121.6-6.8c0.4,12.3,10.4,22,22.7,22h15.2c12.6,0,22.8-10.2,22.8-22.8v-75.9H465.6z"/>
	<path id="Path_25" class="st2" d="M388.8,387.5c-1.9-4.9-5-11.5-8.8-15.3c-9.4-9.3-82-9.8-96.5-9.8s-87.1,0.5-96.5,9.8
		c-3.8,3.9-6.9,10.4-8.8,15.3c-29.4-2.8-50.9-6.2-56.6-8.2c-2.2-4.3-5.1-20.8-5.1-47.3c0-3.9,0.1-7.9,0.3-11.8
		c22.5,8.1,46.3,12.4,70.2,12.8c3.2,2.7,6.8,4.9,10.8,6.3c19.2,6.1,69.6,7.9,85.8,7.9c16.2,0,66.6-1.9,85.8-7.9
		c4-1.4,7.6-3.5,10.8-6.3c23.9-0.3,47.7-4.6,70.2-12.7c0.2,3.9,0.3,7.9,0.3,11.8c0,26.5-2.9,43-5.1,47.3
		C439.7,381.4,418.1,384.7,388.8,387.5L388.8,387.5z"/>
	<path id="Path_26" class="st3" d="M162.8,291.9c2.3,8.9,6,17.5,10.8,25.4c-19.2-1.6-38-5.9-55.9-12.9c0.9-10,2.2-18.7,3.7-24.4
		C130.7,281.8,148.7,285.9,162.8,291.9z"/>
	<path id="Path_27" class="st3" d="M404.1,291.9c14.1-5.9,32.1-10.1,41.4-11.9c1.9,8,3.1,16.2,3.7,24.4
		c-17.9,6.9-36.8,11.2-55.9,12.8C398.2,309.3,401.8,300.8,404.1,291.9L404.1,291.9z"/>
	<path id="Path_28" class="st4" d="M164.7,298.1c-0.7-2-1.3-4.1-1.8-6.2c-14.1-6-32.1-10.1-41.4-11.9c-0.7,2.6-1.2,5.2-1.6,7.8
		C131.9,289.8,149.7,293.3,164.7,298.1z"/>
	<path id="Path_29" class="st4" d="M447.1,287.4c-0.4-2.5-0.9-5-1.6-7.4c-9.3,1.9-27.4,6-41.4,11.9c-0.4,1.7-0.9,3.3-1.4,4.9
		C417.3,292.8,432.2,289.7,447.1,287.4L447.1,287.4z"/>
	<path id="Path_30" class="st5" d="M375,316.8c-3.2,3.8-6.7,6.8-10.3,7.9c-16.3,5.2-64.1,7.2-81.2,7.2s-64.9-2.1-81.2-7.2
		c-3.6-1.1-7.1-4.2-10.3-7.9H375z"/>
	<path id="Path_31" class="st5" d="M384.5,301.6h-83.8l3.8-15.1c48.7,0.4,74.8,2.3,84.3,4.2C387.7,294.5,386.3,298.1,384.5,301.6z"
		/>
	<path id="Path_32" class="st3" d="M285.1,301.7h-3.3l-3.8-15.2l5.5,0l5.5,0L285.1,301.7z"/>
	<path id="Path_33" class="st5" d="M262.4,286.6l3.8,15.1h-83.7c-1.7-3.5-3.2-7.2-4.4-10.9C187.6,288.8,213.6,287,262.4,286.6z"/>
	<path id="Path_34" class="st4" d="M386.2,297.9c1-2.3,1.9-4.7,2.7-7.2c-9.6-1.9-35.6-3.8-84.3-4.2l-1.9,7.6
		C348.7,294.5,374.8,296.1,386.2,297.9z"/>
	<path id="Path_35" class="st4" d="M264.3,294.1l-1.9-7.6c-48.7,0.4-74.8,2.3-84.3,4.2c0.8,2.4,1.7,4.8,2.7,7.2
		C192.2,296.1,218.3,294.5,264.3,294.1z"/>
	<path id="Path_36" class="st6" d="M197.2,170.8c5.8-3.4,42.1-5.8,86.3-5.8s80.5,2.4,85.7,5.4c4.4,4.4,23.1,40.5,30.1,54.1l3.3,6.3
		c-19.5-2.2-56.2-5-119.1-5c-63,0-99.6,2.7-119.1,4.9l3.2-6.2C174.6,210.8,193.3,174.8,197.2,170.8z"/>
	
		<linearGradient id="Path_37_1_" gradientUnits="userSpaceOnUse" x1="99.366" y1="503.9767" x2="100.188" y2="502.5887" gradientTransform="matrix(238.177 0 0 -65.738 -23472.5098 33297.043)">
		<stop  offset="0" style="stop-color:#FFFFFF;stop-opacity:0.2"/>
		<stop  offset="1" style="stop-color:#FFFFFF;stop-opacity:0"/>
	</linearGradient>
	<path id="Path_37" class="st7" d="M197.2,170.8c5.8-3.4,42.1-5.8,86.3-5.8s80.5,2.4,85.7,5.4c4.4,4.4,23.1,40.5,30.1,54.1l3.3,6.3
		c-19.5-2.2-56.2-5-119.1-5c-63,0-99.6,2.7-119.1,4.9l3.2-6.2C174.6,210.8,193.3,174.8,197.2,170.8z"/>
	<path id="Path_38" class="st2" d="M142.6,255.5c3.3-3,6.1-5.5,8.6-7.8c8-1.4,44-6.8,132.2-6.8c88.2,0,124.4,5.6,132.4,7
		c2.4,2.3,5.1,4.7,8.4,7.6c3.6,3.2,8.1,7.2,11.9,10.8c-10.5,2.3-25.2,6.1-37.8,11.4c-10.7-4-39.2-6.5-115-6.5s-104.3,2.5-115,6.5
		c-12.5-5.2-27.3-9.1-37.8-11.4C134.5,262.7,139,258.7,142.6,255.5z"/>
	<path id="Path_39" class="st8" d="M142.6,264.2c3.3-3,6.1-5.5,8.6-7.8c8-1.4,44-6.9,132.2-6.9c88.2,0,124.4,5.6,132.4,7
		c2.4,2.3,5.1,4.7,8.4,7.6l4.4,3.9c2.6-0.7,5.2-1.3,7.5-1.8c-3.8-3.6-8.3-7.7-11.9-10.8c-2.8-2.5-5.6-5-8.4-7.6
		c-8-1.5-44.2-7-132.4-7c-88.2,0-124.2,5.4-132.2,6.8c-2.5,2.3-5.3,4.8-8.6,7.8c-3.6,3.2-8.1,7.2-11.9,10.8c2.3,0.5,4.9,1.1,7.5,1.8
		L142.6,264.2L142.6,264.2z"/>
	<path id="Path_40" class="st5" d="M146.8,400.4c0,4.2-3.4,7.6-7.6,7.6H124c-4.2,0-7.6-3.4-7.6-7.6v-7.2c6.2,2.2,16.9,4.2,30.4,6
		V400.4z"/>
	<path id="Path_41" class="st5" d="M194,388.9c0.7-1.9,1.7-3.7,2.8-5.3c6.2-3.1,48.2-6,86.6-6s80.5,2.9,85.7,5.4
		c1.5,1.8,2.7,3.8,3.6,6c-29.7,2.5-59.5,3.7-89.4,3.8C252.3,392.8,220.9,391.1,194,388.9z"/>
	<path id="Path_42" class="st4" d="M283.5,385.2c33.1,0,68.8,2.2,81.5,4.3c2.6-0.2,5.3-0.4,7.9-0.6c-0.9-2.2-2.1-4.2-3.6-6
		c-5.3-2.4-47.4-5.4-85.7-5.4s-80.5,2.9-86.6,6.1c-1.1,1.7-2.1,3.4-2.8,5.3c3.1,0.2,6.3,0.5,9.5,0.7
		C218,387.2,251.8,385.2,283.5,385.2L283.5,385.2z"/>
	<path id="Path_43" class="st5" d="M442.9,408h-15.2c-4.2,0-7.6-3.4-7.6-7.6v-1.1c13.5-1.8,24.2-3.9,30.4-6v7.2
		C450.5,404.6,447.1,408,442.9,408z"/>
	<path id="Path_44" class="st4" d="M116.4,393.2v7.2c5.8,2,15.5,3.9,27.7,5.7c1.7-1.4,2.6-3.5,2.7-5.7v-1.1
		C133.3,397.4,122.6,395.3,116.4,393.2z"/>
	<path id="Path_45" class="st4" d="M420.1,399.2v1.1c0,2.2,1,4.3,2.7,5.7c12.2-1.8,21.9-3.6,27.7-5.7v-7.2
		C444.3,395.3,433.7,397.4,420.1,399.2z"/>
	<ellipse id="Ellipse_3" class="st1" cx="420.7" cy="361.7" rx="15.5" ry="16.5"/>
	<ellipse id="Ellipse_4" class="st1" cx="146.7" cy="361.7" rx="14.5" ry="16.5"/>
	
		<linearGradient id="Path_46_1_" gradientUnits="userSpaceOnUse" x1="99.274" y1="503.2331" x2="100.252" y2="502.6251" gradientTransform="matrix(364.458 0 0 -273.348 -36066.8711 137785.75)">
		<stop  offset="0" style="stop-color:#FFFFFF;stop-opacity:0.2"/>
		<stop  offset="1" style="stop-color:#FFFFFF;stop-opacity:0"/>
	</linearGradient>
	<path id="Path_46" class="st9" d="M465.6,324.4c-0.5-21.7-3.1-46.6-8.4-56.6c-3-5.8-11-13.1-22.9-23.6c-2.2-2-4.9-4.3-7.4-6.6
		l17.8-4.4c4.1-0.9,6.7-5,5.8-9.1c-0.9-4.1-5-6.7-9.1-5.8c-0.1,0-0.2,0.1-0.4,0.1l-24.6,6.1l-3.7-7.1
		c-16.9-32.8-27.8-52.7-32.8-57.8c-2.4-2.4-9.8-9.8-96.5-9.8s-94.1,7.4-96.5,9.8c-5.1,5.1-15.9,25.1-32.8,57.8l-3.6,7.1l-24.6-6.1
		c-4.1-1-8.2,1.5-9.2,5.5c-1,4.1,1.5,8.2,5.5,9.2l0,0l17.8,4.4c-2.5,2.3-5.1,4.6-7.4,6.6c-11.9,10.5-19.9,17.9-22.9,23.6
		c-5.2,10-7.8,35-8.3,56.6h-0.1v75.9c0,12.6,10.2,22.8,22.8,22.8h15.2c12.3,0,22.3-9.8,22.7-22c37.2,4.1,86.7,6.8,121.6,6.8
		s84.4-2.7,121.6-6.8c0.4,12.3,10.4,22,22.7,22h15.2c12.6,0,22.8-10.2,22.8-22.8v-75.9H465.6z"/>
</g>
</svg>
